<?xml version="1.0" standalone="no"?><!-- Generator: Adobe Fireworks CS6, Export SVG Extension by Aaron Beall (http://fireworks.abeall.com) . Version: 0.6.1  --><!DOCTYPE svg PUBLIC "-//W3C//DTD SVG 1.1//EN" "http://www.w3.org/Graphics/SVG/1.1/DTD/svg11.dtd"><svg id="Untitled-Page%201" viewBox="0 0 119 20" style="background-color:#ffffff00" version="1.1"	xmlns="http://www.w3.org/2000/svg" xmlns:xlink="http://www.w3.org/1999/xlink" xml:space="preserve"	x="0px" y="0px" width="119px" height="20px">	<g>		<path d="M 19.0932 4.0837 C 19.0932 4.0837 19.5389 4.2902 19.8556 4.0145 L 18.7805 2.933 L 13.5802 8.1654 L 11.3347 18.6935 C 11.3347 18.6935 8.6611 19.1339 4.7881 15.2369 C 0.9315 11.3559 1.4176 8.4591 1.4176 8.4591 L 11.7663 6.3401 L 16.9663 1.1074 L 15.8659 0 C 15.614 0.3214 15.7124 0.9042 15.7124 0.9042 L 11.2522 5.392 L 0.0072 7.8492 C 0.0072 7.8492 -0.3521 11.9306 4.0105 16.215 C 8.0614 20.1939 12.0807 19.9984 12.0807 19.9984 L 14.5224 8.6828 L 19.0932 4.0837 Z" fill="#0069d6"/>		<path d="M 5.6153 14.4059 C 8.3855 17.0956 10.4599 17.4545 10.4599 17.4545 L 11.8875 11.2411 C 11.8875 11.2411 11.8945 11.2115 11.8987 11.1598 C 11.9212 10.884 11.8641 9.9761 10.2365 9.5797 C 8.3049 9.1091 8.6675 8.001 8.6675 8.001 L 5.2779 8.7416 L 2.8112 9.2689 C 2.8112 9.2689 2.8451 11.7159 5.6153 14.4059 Z" fill="#0069d6"/>		<path d="M 20.3772 6.7964 C 20.3772 7.4647 20.0983 7.703 19.7539 7.703 C 19.4102 7.703 19.1313 7.4647 19.1313 6.7964 C 19.1313 6.1282 19.7539 5.2832 19.7539 5.2832 C 19.7539 5.2832 20.3772 6.1282 20.3772 6.7964 Z" fill="#0069d6"/>		<path d="M 33.9385 14.8046 L 34.9752 15.7395 C 33.4495 17.1307 31.7703 17.826 29.938 17.826 C 27.9686 17.826 26.2912 17.1291 24.9057 15.7345 C 23.52 14.3403 22.8272 12.6526 22.8272 10.6707 C 22.8272 8.7022 23.52 7.0178 24.9057 5.6168 C 26.2912 4.2159 27.9686 3.5154 29.938 3.5154 C 31.7703 3.5154 33.4495 4.2175 34.9752 5.6216 L 33.9385 6.5467 C 32.7191 5.4642 31.3857 4.9228 29.938 4.9228 C 28.36 4.9228 27.0119 5.4839 25.8936 6.606 C 24.7752 7.728 24.2162 9.0829 24.2162 10.6707 C 24.2162 12.265 24.7752 13.625 25.8936 14.7505 C 27.0119 15.8757 28.36 16.4383 29.938 16.4383 C 31.3857 16.4383 32.7191 15.8938 33.9385 14.8046 Z" fill="#0069d6"/>		<path d="M 41.1729 13.0428 L 39.168 13.0428 L 39.168 17.6686 L 37.7887 17.6686 L 37.7887 3.6829 L 41.6034 3.6829 C 42.7052 3.827 43.6345 4.283 44.3909 5.0509 C 45.2971 5.9697 45.7505 7.0684 45.7505 8.348 C 45.7505 9.6473 45.2971 10.753 44.3909 11.6649 C 43.7584 12.2947 43.1781 12.6753 42.6499 12.8064 L 45.7896 17.6686 L 44.1171 17.6686 L 41.1729 13.0428 ZM 39.168 5.0705 L 39.168 11.6452 L 41.1045 11.6452 C 42.0043 11.6452 42.7738 11.3238 43.4128 10.6807 C 44.0519 10.0375 44.3714 9.26 44.3714 8.348 C 44.3714 7.4426 44.0519 6.6698 43.4128 6.0301 C 42.7738 5.3904 42.0043 5.0705 41.1045 5.0705 L 39.168 5.0705 Z" fill="#0069d6"/>		<path d="M 56.2503 3.6829 L 56.2503 5.0606 L 50.3622 5.0606 L 50.3622 9.9817 L 56.2503 9.9817 L 56.2503 11.3696 L 50.3622 11.3696 L 50.3622 16.2809 L 56.2503 16.2809 L 56.2503 17.6686 L 48.9829 17.6686 L 48.9829 3.6829 L 56.2503 3.6829 Z" fill="#0069d6"/>		<path d="M 72.0198 3.6829 L 72.0198 17.6686 L 70.6407 17.6686 L 70.6407 5.7399 L 66.5326 11.1433 L 65.8187 12.098 L 65.0949 11.153 L 60.9869 5.7399 L 60.9869 17.6686 L 59.6075 17.6686 L 59.6075 3.6829 L 61.1627 3.6829 L 65.8187 9.8046 L 70.4648 3.6829 L 72.0198 3.6829 Z" fill="#0069d6"/>		<path d="M 80.5863 3.6829 L 85.6337 17.6686 L 84.1761 17.6686 L 82.0535 11.7928 L 77.9063 11.7928 L 75.745 17.6686 L 74.2777 17.6686 L 79.383 3.6829 L 80.5863 3.6829 ZM 81.5548 10.4148 L 79.9799 6.0448 L 78.4051 10.4148 L 81.5548 10.4148 Z" fill="#0069d6"/>		<path d="M 87.9923 17.6686 L 87.9923 3.6829 L 89.3714 3.6829 L 89.3714 16.2809 L 94.4286 16.2809 L 94.4286 17.6686 L 87.9923 17.6686 Z" fill="#0069d6"/>		<path d="M 102.8108 3.6829 L 107.8575 17.6686 L 106.4004 17.6686 L 104.2778 11.7928 L 100.1306 11.7928 L 97.969 17.6686 L 96.5017 17.6686 L 101.6076 3.6829 L 102.8108 3.6829 ZM 103.7788 10.4148 L 102.2042 6.0448 L 100.6296 10.4148 L 103.7788 10.4148 Z" fill="#0069d6"/>		<path d="M 117.6403 9.6865 C 118.5468 10.5986 119 11.7009 119 12.9935 C 119 14.2863 118.5468 15.3886 117.6403 16.3006 C 116.8841 17.0618 115.9581 17.5176 114.8627 17.6686 L 110.2166 17.6686 L 110.2166 3.6829 L 114.4911 3.6829 C 115.3385 3.6829 116.0578 3.9813 116.6475 4.5782 C 117.2376 5.1755 117.533 5.8939 117.533 6.7338 C 117.533 7.5737 117.236 8.2922 116.6427 8.8893 C 116.8774 8.9747 117.21 9.2403 117.6403 9.6865 ZM 111.596 5.0509 L 111.596 8.3185 L 114.6473 8.3185 C 115.1038 8.2727 115.4428 8.138 115.6645 7.9148 C 115.9838 7.5935 116.1439 7.1998 116.1439 6.7338 C 116.1439 6.2746 115.9808 5.8794 115.6548 5.5478 C 115.3286 5.2164 114.9376 5.0509 114.4811 5.0509 L 111.596 5.0509 ZM 114.3539 16.2809 C 115.2473 16.2809 116.0119 15.961 116.6475 15.3211 C 117.2832 14.6815 117.6013 13.9055 117.6013 12.9935 C 117.6013 12.0881 117.2832 11.3138 116.6475 10.6707 C 116.0119 10.0277 115.2473 9.7063 114.3539 9.7063 L 111.596 9.7063 L 111.596 16.2809 L 114.3539 16.2809 Z" fill="#0069d6"/>	</g></svg>