<?xml version="1.0" standalone="no"?><!-- Generator: Adobe Fireworks CS5, Export SVG Extension by Aaron Beall (http://fireworks.abeall.com) . Version: 0.6.1  --><!DOCTYPE svg PUBLIC "-//W3C//DTD SVG 1.1//EN" "http://www.w3.org/Graphics/SVG/1.1/DTD/svg11.dtd"><svg id="faceholdit_sprite_layered-Page%201" viewBox="0 0 280 40" style="background-color:#ffffff00" version="1.1"	xmlns="http://www.w3.org/2000/svg" xmlns:xlink="http://www.w3.org/1999/xlink" xml:space="preserve"	x="0px" y="0px" width="280px" height="40px">	<g id="Layer%201">		<g>			<g>				<path d="M 38.0021 0 L 1.998 0 C 0.899 0 0 0.9 0 2 L 0 38 C 0 39.1 0.899 40 1.998 40 L 38.0021 40 C 39.101 40 40 39.1 40 38 L 40 2 C 40 0.9 39.101 0 38.0021 0 ZM 36 36 L 4 36 L 4 4 L 36 4 L 36 36 Z" fill="#1a74bb"/>				<path d="M 26 26 L 14 26 L 14 22 L 10 22 L 10 26 L 10 30 L 13.9858 30 L 25.9736 30 L 30 30 L 30 26 L 30 22 L 26 22 L 26 26 Z" fill="#1a74bb"/>				<path d="M 27.9716 18 C 30.1785 18 31.9675 16.2092 31.9675 14 C 31.9675 11.7908 30.1785 10 27.9716 10 C 25.7646 10 23.9756 11.7908 23.9756 14 C 23.9756 16.2092 25.7646 18 27.9716 18 Z" fill="#1a74bb"/>				<path d="M 11.9878 18 C 14.1948 18 15.9838 16.2092 15.9838 14 C 15.9838 11.7908 14.1948 10 11.9878 10 C 9.7809 10 7.9919 11.7908 7.9919 14 C 7.9919 16.2092 9.7809 18 11.9878 18 Z" fill="#1a74bb"/>			</g>			<g>				<path d="M 62 17 L 62 29 L 63 29 L 63 17 L 66 17 L 66 16 L 63 16 L 63 14.9688 C 63 13.9219 63.1875 13.1719 63.5625 12.7031 C 63.9375 12.2344 64.5781 12 65.4844 12 C 66.1094 12 66.7344 12.0938 67.3594 12.25 L 67.625 11.3125 C 66.9063 11.1094 66.2031 11 65.5156 11 C 64.2031 11 63.2969 11.3281 62.7813 11.9688 C 62.25 12.625 62 13.6406 62 15.0156 L 62 15.8906 L 60 16 L 60 17 L 62 17 L 62 17 Z" fill="#333333"/>				<path d="M 69.0225 28 C 69.7256 28.6719 70.71 29 71.9913 29 C 73.0069 29 73.8975 28.8281 74.6475 28.4844 C 75.3975 28.1406 76.1319 27.5625 76.8506 26.7188 L 76.96 26.7188 L 76.96 29 L 77.96 29 L 77.96 20.5 C 77.96 18.9688 77.585 17.8281 76.8663 17.0938 C 76.1475 16.375 75.0538 16 73.6006 16 C 72.0694 16 70.5381 16.3281 68.9913 16.9844 L 69.4756 17.8594 C 70.8819 17.2969 72.2413 17 73.5538 17 C 74.7569 17 75.6319 17.2813 76.1788 17.8125 C 76.7256 18.3438 77.0069 19.1406 77.0069 20.2031 L 77.0069 20.9375 L 74.4131 21 C 72.3194 21.0469 70.71 21.4375 69.6163 22.1563 C 68.5069 22.8906 67.96 23.9219 67.96 25.2344 C 67.96 26.4219 68.3038 27.3438 69.0225 28 L 69.0225 28 ZM 70.2256 22.9063 C 71.0694 22.4063 72.4913 22.0938 74.4913 22 L 76.96 21.9063 L 76.96 23.25 C 76.96 24.75 76.5225 25.9063 75.6475 26.75 C 74.7725 27.5938 73.5694 28 72.0694 28 C 71.0694 28 70.3038 27.7656 69.7725 27.2969 C 69.2256 26.8281 68.96 26.1563 68.96 25.2813 C 68.96 24.2188 69.3819 23.4219 70.2256 22.9063 L 70.2256 22.9063 Z" fill="#333333"/>				<path d="M 83.3575 27.3125 C 84.3106 28.4375 85.7012 29 87.5294 29 C 88.8419 29 89.92 28.8125 90.7325 28.4375 L 90.7325 27.3906 C 89.7325 27.7969 88.67 28 87.5137 28 C 86.0606 28 84.9356 27.5313 84.1231 26.5625 C 83.3106 25.5938 82.92 24.2656 82.92 22.5625 C 82.92 20.7656 83.3106 19.3906 84.1231 18.4375 C 84.9356 17.4844 86.1231 17 87.6856 17 C 88.4981 17 89.4512 17.1875 90.5606 17.5469 L 90.8731 16.5469 C 89.8575 16.1875 88.795 16 87.7012 16 C 85.8419 16 84.42 16.5781 83.42 17.7344 C 82.42 18.8906 81.92 20.5156 81.92 22.5781 C 81.92 24.6094 82.3887 26.1875 83.3575 27.3125 L 83.3575 27.3125 Z" fill="#333333"/>				<path d="M 95.5363 27.4063 C 96.63 28.4688 98.1769 29 100.1613 29 C 100.9425 29 101.6769 28.9531 102.3331 28.8438 C 102.9894 28.7344 103.6925 28.5313 104.4738 28.2344 L 104.4738 27.25 C 103.5675 27.5625 102.8175 27.7656 102.2238 27.8594 C 101.63 27.9531 100.9425 28 100.1613 28 C 98.4738 28 97.1769 27.5781 96.2706 26.7188 C 95.3644 25.875 94.8956 24.625 94.88 23 L 104.88 23 L 104.88 22.0313 C 104.88 20.1875 104.4113 18.7188 103.505 17.625 C 102.5988 16.5469 101.3488 16 99.7706 16 C 97.9581 16 96.5363 16.6406 95.4738 17.9063 C 94.4113 19.1719 93.88 20.8438 93.88 22.9375 C 93.88 24.8594 94.4269 26.3438 95.5363 27.4063 L 95.5363 27.4063 ZM 96.4269 18.2969 C 97.2706 17.4375 98.38 17 99.7706 17 C 101.0519 17 102.0675 17.4531 102.7863 18.3281 C 103.505 19.2188 103.88 20.4375 103.88 22 L 94.9581 22 C 95.0988 20.3906 95.5831 19.1563 96.4269 18.2969 L 96.4269 18.2969 Z" fill="#333333"/>				<path d="M 109.84 29 L 109.84 21.9219 C 109.84 20.2031 110.1994 18.9531 110.9337 18.1719 C 111.6681 17.3906 112.8244 17 114.4025 17 C 115.5744 17 116.4337 17.2969 116.9962 17.875 C 117.5587 18.4688 117.84 19.4063 117.84 20.6875 L 117.84 29 L 118.84 29 L 118.84 20.6563 C 118.84 17.5625 117.4025 16 114.5431 16 C 113.4181 16 112.4806 16.1719 111.7306 16.5 C 110.9806 16.8438 110.3556 17.375 109.8712 18.125 L 109.7775 18.125 L 109.84 16.5625 L 109.84 11 L 108.84 11 L 108.84 29 L 109.84 29 L 109.84 29 Z" fill="#333333"/>				<path d="M 123.4563 25.9219 C 123.8938 26.9219 124.5344 27.6719 125.3625 28.2031 C 126.1906 28.7344 127.1594 29 128.2531 29 C 129.9719 29 131.3313 28.4375 132.3156 27.2813 C 133.3 26.125 133.8 24.5313 133.8 22.4844 C 133.8 20.4844 133.3156 18.8906 132.3469 17.7344 C 131.3781 16.5781 130.0344 16 128.3313 16 C 126.6125 16 125.2531 16.5781 124.2688 17.7188 C 123.2844 18.8594 122.8 20.4531 122.8 22.4844 C 122.8 23.7969 123.0188 24.9375 123.4563 25.9219 L 123.4563 25.9219 ZM 124.9563 18.4375 C 125.7375 17.4844 126.8313 17 128.2688 17 C 129.7063 17 130.8156 17.4844 131.6125 18.4375 C 132.3938 19.4063 132.8 20.75 132.8 22.4844 C 132.8 24.2344 132.4094 25.5781 131.6281 26.5469 C 130.8469 27.5156 129.7375 28 128.3 28 C 126.8625 28 125.7531 27.5156 124.9719 26.5469 C 124.1906 25.5781 123.8 24.2344 123.8 22.4844 C 123.8 20.7344 124.175 19.3906 124.9563 18.4375 L 124.9563 18.4375 Z" fill="#333333"/>				<path d="M 139.76 29 L 139.76 10.7656 L 138.76 10.7656 L 138.76 29 L 139.76 29 L 139.76 29 Z" fill="#333333"/>				<path d="M 145.1263 27.3906 C 146.0638 28.4688 147.4388 29 149.2356 29 C 151.1731 29 152.6731 28.2969 153.72 26.8594 L 153.72 29 L 154.72 29 L 154.72 11 L 153.72 11 L 153.72 15.3906 C 153.72 16.2969 153.7356 17.2188 153.7825 18.1563 L 153.72 18.1563 C 153.1419 17.375 152.5013 16.8125 151.7825 16.4844 C 151.0638 16.1719 150.2044 16 149.22 16 C 147.4231 16 146.0638 16.5781 145.1263 17.7188 C 144.1888 18.8594 143.72 20.5156 143.72 22.6719 C 143.72 24.7344 144.1888 26.3125 145.1263 27.3906 L 145.1263 27.3906 ZM 145.845 18.4531 C 146.595 17.4844 147.72 17 149.22 17 C 150.7981 17 151.9388 17.4375 152.6575 18.2813 C 153.3606 19.1406 153.72 20.5469 153.72 22.4844 L 153.72 22.6719 C 153.72 24.5781 153.345 25.9375 152.6263 26.7656 C 151.9075 27.5938 150.7669 28 149.2356 28 C 146.22 28 144.72 26.2188 144.72 22.6563 C 144.72 20.8125 145.095 19.4219 145.845 18.4531 L 145.845 18.4531 Z" fill="#333333"/>				<path d="M 160.18 29 C 160.5081 29 160.68 28.6719 160.68 28 C 160.68 27.3438 160.5081 27 160.18 27 C 159.8362 27 159.68 27.3438 159.68 28 C 159.68 28.6719 159.8362 29 160.18 29 L 160.18 29 Z" fill="#333333"/>				<path d="M 167.2025 14 C 167.3275 14 167.4369 13.9219 167.515 13.7344 C 167.5931 13.5625 167.64 13.3125 167.64 13 C 167.64 12.6875 167.5931 12.4375 167.515 12.2656 C 167.4369 12.0938 167.3275 12 167.2025 12 C 166.8275 12 166.64 12.3438 166.64 13 C 166.64 13.6719 166.8275 14 167.2025 14 L 167.2025 14 ZM 167.64 29 L 167.64 16 L 166.8119 16 L 166.8119 29 L 167.64 29 L 167.64 29 Z" fill="#333333"/>				<path d="M 172.6 17 L 172.6 25.25 C 172.6 26.5469 172.8344 27.5 173.3031 28.0938 C 173.7719 28.7031 174.5844 29 175.7094 29 C 176.4438 29 177.1 28.9219 177.6625 28.7344 L 177.6625 27.8125 C 177.1 27.9375 176.4594 28 175.7406 28 C 174.9906 28 174.4594 27.7656 174.1156 27.2969 C 173.7719 26.8281 173.6 26.0938 173.6 25.1094 L 173.6 17 L 176.6 17 L 176.6 16 L 173.6 16 L 173.6 13 L 172.6 13 L 172.6 16 L 170.6 16 L 170.6 17 L 172.6 17 L 172.6 17 Z" fill="#333333"/>			</g>		</g>		<g>			<path d="M 197 28 L 197 15 L 203.0001 15 L 193.5 5 L 184 15 L 190 15 L 190 30 C 190 32.7617 192.2383 35 195.0001 35 L 214.5 35 L 208.0976 28 L 197 28 ZM 228 25 L 228 10 C 228 7.2383 225.7617 5 223 5 L 203.5 5 L 209.9024 12 L 221 12 L 221 25 L 214.9999 25 L 224.5 35 L 234 25 L 228 25 Z" fill="#1a74bb"/>		</g>		<g>			<path d="M 246.7015 5 C 248.7393 5 249.7581 6.3702 249.7581 7.9367 C 249.7581 9.8935 247.9885 11.7031 245.6826 11.7031 C 243.752 11.7031 242.6255 10.5775 242.679 8.7189 C 242.679 7.1527 244.0195 5 246.7015 5 ZM 240.4261 35 C 238.817 35 237.6371 34.0215 238.7634 29.7154 L 240.611 22.0783 C 240.9326 20.8552 240.9855 20.3662 240.611 20.3662 C 240.1277 20.3662 238.0388 21.2111 236.8037 22.0432 L 236 20.7219 C 239.9149 17.4441 244.4189 15.5217 246.349 15.5217 C 247.9575 15.5217 248.2262 17.4301 247.4219 20.3662 L 245.307 28.3941 C 244.9313 29.8127 245.093 30.302 245.4675 30.302 C 245.9502 30.302 247.5332 29.7131 249.0881 28.4896 L 250 29.7131 C 246.1921 33.5299 242.0352 35 240.4261 35 Z" fill="#1a74bb"/>		</g>		<g>			<path d="M 277.9906 29.0908 L 270.0699 20.0001 L 277.9906 10.9091 C 279.3365 9.5573 279.3365 7.3656 277.9906 6.0138 C 276.6436 4.6619 274.4613 4.6622 273.1155 6.014 L 265.5 14.7554 L 257.8846 6.014 C 256.5387 4.6622 254.3565 4.6619 253.0094 6.0138 C 251.6636 7.3656 251.6636 9.5573 253.0094 10.9091 L 260.9302 20.0001 L 253.0094 29.0908 C 251.6636 30.4427 251.6636 32.634 253.0089 33.9859 C 254.3553 35.338 256.5376 35.338 257.8846 33.9859 L 265.5 25.2448 L 273.1155 33.9859 C 274.4624 35.338 276.6448 35.338 277.9911 33.9859 C 279.3365 32.634 279.3365 30.4427 277.9906 29.0908 Z" fill="#1a74bb"/>		</g>	</g></svg>